<svg width="47" height="39" viewBox="0 0 47 39" fill="none" xmlns="http://www.w3.org/2000/svg">
<path d="M2.38714 38.6744H0C0 34.7768 0.738878 30.9882 2.18821 27.4449C2.75658 26.082 3.4102 24.7737 4.1775 23.4927L4.4901 22.9748L5.11531 22.9203C6.3373 22.8385 8.26974 22.5932 10.458 21.8301C13.6408 20.7398 16.2269 18.9954 18.1593 16.6514C19.6655 14.8252 20.717 12.7265 21.2854 10.3824L18.7277 1.76943L21.1433 0.21582L21.8253 0.706434C23.3883 1.82394 25.0366 2.88694 26.7417 3.78639C27.8216 4.38603 28.9583 4.93116 30.095 5.42177C32.2833 5.34 34.4999 5.12195 36.6597 4.82213C39.3594 4.44055 42.0592 3.92268 44.7021 3.24127L45.782 2.96871L46.1514 4.00444C46.805 5.91238 47.0892 7.87484 46.9756 9.86455C46.8903 11.7452 46.4356 13.5714 45.6683 15.2885L43.4801 14.3891C44.1337 12.9173 44.5032 11.3364 44.5884 9.72826C44.6737 8.39271 44.5316 7.05715 44.1906 5.74885C41.8318 6.32123 39.4163 6.78459 37.0007 7.11166C34.6704 7.43874 32.2833 7.62953 29.8961 7.73856H29.6119L29.3562 7.62953C28.0773 7.05715 26.7985 6.45751 25.5481 5.7761C24.2409 5.06744 22.9336 4.27701 21.6832 3.43206L23.7862 10.3279L23.7293 10.6005C23.0757 13.4079 21.8537 15.9154 20.0634 18.0687C17.8467 20.7671 14.8912 22.7295 11.2821 23.9833C9.17913 24.692 7.30352 25.019 5.93944 25.1553C5.37107 26.1638 4.85954 27.2268 4.40485 28.2898C3.06918 31.5606 2.38714 35.0494 2.38714 38.6744Z" fill="white"/>
<path d="M8.75287 38.6742V38.2108C8.75287 37.0661 9.06547 36.1938 9.66225 35.6487C10.6001 34.831 11.9926 34.8856 12.0778 34.8856H12.1062H29.2425H29.2993H29.3846C29.4698 34.8856 30.6066 34.8038 31.4307 35.5397C32.1412 36.1666 32.5106 37.2023 32.5106 38.6742H34.8978C34.8978 36.5209 34.2441 34.8856 32.9937 33.7953C31.4876 32.5143 29.6404 32.5688 29.1857 32.596H12.2483C11.822 32.5688 9.69067 32.5415 8.07082 33.9316C6.93409 34.9128 6.36572 36.3574 6.36572 38.1836V38.6469H8.75287V38.6742Z" fill="white"/>
<path d="M36.9439 22.3754C38.5353 27.6086 39.2742 33.0872 39.1889 38.6747H41.5761C41.6613 32.8691 40.8656 27.1725 39.2458 21.7213C38.9047 20.6038 38.5353 19.4863 38.109 18.396L43.2243 20.413L44.1337 18.287L37.086 15.5068L35.2388 17.6056L35.4945 18.2325C36.0345 19.5953 36.5176 20.9854 36.9439 22.3754Z" fill="white"/>
</svg>
